<svg aria-hidden="true" style="position: absolute; width: 0; height: 0; overflow: hidden;" version="1.1" xmlns="http://www.w3.org/2000/svg" xmlns:xlink="http://www.w3.org/1999/xlink">
<defs>
<symbol id="icon-3" viewBox="0 0 23 32">
<path fill="#fbfbfb" style="fill: var(--color1, #fbfbfb)" d="M10.949 30.737c-2.103 0-3.971-0.355-5.605-1.065-1.634-0.723-2.926-1.728-3.877-3.013-0.938-1.286-1.426-2.772-1.467-4.46h5.464c0.040 0.817 0.301 1.527 0.784 2.13 0.496 0.589 1.152 1.051 1.969 1.386 0.817 0.321 1.728 0.482 2.732 0.482 1.071 0 2.016-0.187 2.833-0.563 0.83-0.388 1.48-0.911 1.949-1.567 0.469-0.67 0.703-1.44 0.703-2.31 0-0.911-0.241-1.714-0.723-2.411-0.469-0.696-1.152-1.239-2.049-1.627s-1.975-0.583-3.234-0.583h-2.672v-4.179h2.672c1.018 0 1.922-0.181 2.712-0.542s1.406-0.864 1.848-1.507c0.442-0.656 0.663-1.42 0.663-2.29 0-0.844-0.194-1.58-0.583-2.21-0.375-0.629-0.911-1.118-1.607-1.466s-1.513-0.522-2.451-0.522c-0.911 0-1.761 0.167-2.551 0.502-0.777 0.321-1.406 0.783-1.888 1.386-0.469 0.603-0.716 1.326-0.743 2.17h-5.203c0.027-1.674 0.502-3.147 1.426-4.42 0.938-1.272 2.19-2.263 3.757-2.973 1.567-0.723 3.321-1.085 5.263-1.085 1.982 0 3.71 0.375 5.183 1.125 1.487 0.737 2.632 1.734 3.435 2.993 0.817 1.259 1.225 2.645 1.225 4.158 0 1.688-0.496 3.1-1.487 4.239s-2.297 1.888-3.917 2.25v0.221c2.089 0.295 3.69 1.071 4.801 2.33 1.125 1.259 1.688 2.826 1.688 4.701 0 1.674-0.475 3.174-1.426 4.5-0.951 1.312-2.257 2.344-3.917 3.094s-3.563 1.125-5.705 1.125z"></path>
</symbol>
<symbol id="icon-2" viewBox="0 0 23 32">
<path fill="#fbfbfb" style="fill: var(--color1, #fbfbfb)" d="M0.141 30.335v-3.897l10.406-10.205c0.978-1.004 1.795-1.895 2.451-2.672 0.67-0.777 1.172-1.527 1.507-2.25 0.335-0.737 0.502-1.52 0.502-2.35 0-0.938-0.214-1.748-0.643-2.431s-1.018-1.205-1.768-1.567c-0.737-0.362-1.58-0.542-2.531-0.542-0.991 0-1.855 0.201-2.592 0.603s-1.313 0.971-1.728 1.708c-0.402 0.737-0.603 1.614-0.603 2.632h-5.143c0-1.888 0.429-3.529 1.286-4.922 0.871-1.406 2.069-2.498 3.596-3.275s3.275-1.165 5.243-1.165c2.022 0 3.79 0.375 5.304 1.125s2.692 1.781 3.536 3.094c0.844 1.299 1.266 2.786 1.266 4.46 0 1.125-0.214 2.23-0.643 3.315-0.429 1.071-1.185 2.27-2.27 3.596-1.071 1.313-2.578 2.9-4.52 4.761l-5.143 5.243v0.221h13.018v4.52h-20.531z"></path>
</symbol>
<symbol id="icon-1" viewBox="0 0 14 32">
<path fill="#fbfbfb" style="fill: var(--color1, #fbfbfb)" d="M12.556 0v29.933h-5.384v-24.65h-0.181l-6.991 4.48v-4.982l7.433-4.781h5.123z"></path>
</symbol>
<symbol id="icon-Vector" viewBox="0 0 32 32">
<path fill="#fbfbfb" style="fill: var(--color1, #fbfbfb)" d="M29.082 0.228h-4.010c-1.237 0-2.24 0.983-2.24 2.195v3.929c0 1.212 1.003 2.195 2.24 2.195h4.010c1.237 0 2.24-0.983 2.24-2.195v-3.929c0-1.212-1.003-2.195-2.24-2.195z"></path>
<path fill="#fbfbfb" style="fill: var(--color1, #fbfbfb)" d="M6.73 22.954h-4.318c-1.332 0-2.412 0.983-2.412 2.196v3.929c0 1.212 1.080 2.195 2.412 2.195h4.318c1.332 0 2.412-0.983 2.412-2.195v-3.929c0-1.212-1.080-2.196-2.412-2.196z"></path>
<path fill="#fbfbfb" style="fill: var(--color1, #fbfbfb)" d="M6.25 11.495h-4.009c-1.237 0-2.24 0.983-2.24 2.195v3.929c0 1.212 1.003 2.195 2.24 2.195h4.009c1.237 0 2.24-0.983 2.24-2.195v-3.929c0-1.212-1.003-2.195-2.24-2.195z"></path>
<path fill="#fbfbfb" style="fill: var(--color1, #fbfbfb)" d="M17.766 22.892h-4.009c-1.237 0-2.24 0.983-2.24 2.195l-0 3.929c0 1.212 1.003 2.195 2.241 2.195h4.009c1.237 0 2.24-0.983 2.24-2.195v-3.929c0-1.212-1.003-2.195-2.24-2.195z"></path>
<path fill="#fbfbfb" style="fill: var(--color1, #fbfbfb)" d="M6.25-0h-4.009c-1.237 0-2.24 0.983-2.24 2.195v3.929c0 1.212 1.003 2.195 2.24 2.195h4.009c1.237 0 2.24-0.983 2.24-2.195v-3.929c0-1.212-1.003-2.195-2.24-2.195z"></path>
<path fill="#fbfbfb" style="fill: var(--color1, #fbfbfb)" d="M18.076 11.611h-4.009c-1.237 0-2.24 0.983-2.24 2.195v3.929c0 1.212 1.003 2.196 2.24 2.196h4.009c1.237 0 2.24-0.983 2.24-2.196v-3.929c0-1.212-1.003-2.195-2.24-2.195z"></path>
<path fill="#fbfbfb" style="fill: var(--color1, #fbfbfb)" d="M29.333 22.892h-4.009c-1.237 0-2.24 0.983-2.24 2.195v3.929c0 1.212 1.003 2.195 2.24 2.195h4.009c1.237 0 2.24-0.983 2.24-2.195v-3.929c0-1.212-1.003-2.195-2.24-2.195z"></path>
<path fill="#fbfbfb" style="fill: var(--color1, #fbfbfb)" d="M17.591 0.137h-4.009c-1.237 0-2.24 0.983-2.24 2.195v3.929c0 1.212 1.003 2.195 2.24 2.195h4.009c1.237 0 2.24-0.984 2.24-2.196v-3.929c0-1.212-1.003-2.195-2.24-2.195z"></path>
<path fill="#fbfbfb" style="fill: var(--color1, #fbfbfb)" d="M29.044 11.839h-4.009c-1.237 0-2.24 0.983-2.24 2.195v3.929c0 1.212 1.003 2.195 2.24 2.195h4.009c1.237 0 2.24-0.983 2.24-2.195v-3.929c0-1.212-1.003-2.195-2.24-2.195z"></path>
</symbol>
<svg aria-hidden="true" style="position: absolute; width: 0; height: 0; overflow: hidden;" version="1.1" xmlns="http://www.w3.org/2000/svg" xmlns:xlink="http://www.w3.org/1999/xlink">
<defs>
<symbol id="icon-menu" viewBox="0 0 41 32">
<path fill="none" stroke="#fbfbfb" style="stroke: var(--color1, #fbfbfb)" stroke-linejoin="round" stroke-linecap="round" stroke-miterlimit="4" stroke-width="5.3333" d="M2.667 2.667h35.556M2.667 16h17.778M2.667 29.333h35.556"></path>
</symbol>
<svg aria-hidden="true" style="position: absolute; width: 0; height: 0; overflow: hidden;" version="1.1" xmlns="http://www.w3.org/2000/svg" xmlns:xlink="http://www.w3.org/1999/xlink">
<defs>
<symbol id="icon-closed" viewBox="0 0 32 32">
<path fill="none" stroke="#fbfbfb" style="stroke: var(--color1, #fbfbfb)" stroke-linejoin="round" stroke-linecap="round" stroke-miterlimit="4" stroke-width="3" d="M24 8l-16 16"></path>
<path fill="none" stroke="#fbfbfb" style="stroke: var(--color1, #fbfbfb)" stroke-linejoin="round" stroke-linecap="round" stroke-miterlimit="4" stroke-width="3" d="M8 8l16 16"></path>
</symbol>
</defs>
</svg>
